STARTFONT 2.1
FONT -Monotype-Book Antiqua-Regular-I-Normal--14-140-75-75-P-71-iso8859-9
SIZE 14 75 75
FONTBOUNDINGBOX 18 19 -3 -4

STARTPROPERTIES 21
FOUNDRY "Monotype"
FAMILY_NAME "Book Antiqua"
WEIGHT_NAME "Regular"
SLANT "I"
SETWIDTH_NAME "Normal"
ADD_STYLE_NAME ""
PIXEL_SIZE 14
POINT_SIZE 140
RESOLUTION_X 75
RESOLUTION_Y 75
SPACING "P"
AVERAGE_WIDTH 71
CHARSET_REGISTRY "iso8859"
CHARSET_ENCODING "9"
COPYRIGHT "Copyright (c) 1996 Monotype Typography Ltd."
CAP_HEIGHT 13
X_HEIGHT 9
WEIGHT 10
QUAD_WIDTH 9
FONT_DESCENT 5
FONT_ASCENT 15
ENDPROPERTIES

CHARS 191

STARTCHAR space
ENCODING 32
SWIDTH 250 0
DWIDTH 4 0
BBX 0 0 0 0
BITMAP
ENDCHAR

STARTCHAR exclam
ENCODING 33
SWIDTH 333 0
DWIDTH 5 0
BBX 2 12 2 0
BITMAP
40
40
40
40
40
80
80
80
80
00
80
80
ENDCHAR

STARTCHAR quotedbl
ENCODING 34
SWIDTH 500 0
DWIDTH 8 0
BBX 4 4 2 7
BITMAP
90
90
90
90
ENDCHAR

STARTCHAR numbersign
ENCODING 35
SWIDTH 606 0
DWIDTH 9 0
BBX 9 11 0 0
BITMAP
1100
1100
1100
7F80
2200
2200
2200
FF00
4400
4400
4400
ENDCHAR

STARTCHAR dollar
ENCODING 36
SWIDTH 500 0
DWIDTH 8 0
BBX 7 14 1 -2
BITMAP
08
3E
4A
4A
48
38
08
14
14
94
98
F0
20
20
ENDCHAR

STARTCHAR percent
ENCODING 37
SWIDTH 889 0
DWIDTH 13 0
BBX 11 11 1 0
BITMAP
3080
4900
8900
8A00
9400
64C0
0920
1220
1220
2240
4180
ENDCHAR

STARTCHAR ampersand
ENCODING 38
SWIDTH 778 0
DWIDTH 12 0
BBX 11 11 1 0
BITMAP
0E00
1200
2000
2020
3820
4340
8580
8080
8080
4100
3E00
ENDCHAR

STARTCHAR quoteright
ENCODING 39
SWIDTH 278 0
DWIDTH 4 0
BBX 3 4 1 8
BITMAP
60
60
40
80
ENDCHAR

STARTCHAR parenleft
ENCODING 40
SWIDTH 333 0
DWIDTH 5 0
BBX 4 16 1 -4
BITMAP
10
20
20
40
40
80
80
80
80
80
80
80
40
40
40
20
ENDCHAR

STARTCHAR parenright
ENCODING 41
SWIDTH 333 0
DWIDTH 5 0
BBX 4 16 0 -4
BITMAP
40
20
20
20
10
10
10
10
10
10
10
20
20
40
40
80
ENDCHAR

STARTCHAR asterisk
ENCODING 42
SWIDTH 389 0
DWIDTH 6 0
BBX 5 5 1 7
BITMAP
20
A8
F8
50
D8
ENDCHAR

STARTCHAR plus
ENCODING 43
SWIDTH 606 0
DWIDTH 9 0
BBX 7 7 1 1
BITMAP
10
10
10
FE
10
10
10
ENDCHAR

STARTCHAR comma
ENCODING 44
SWIDTH 250 0
DWIDTH 4 0
BBX 3 4 1 -2
BITMAP
60
60
40
80
ENDCHAR

STARTCHAR minus
ENCODING 45
SWIDTH 606 0
DWIDTH 9 0
BBX 7 1 1 4
BITMAP
FE
ENDCHAR

STARTCHAR period
ENCODING 46
SWIDTH 250 0
DWIDTH 4 0
BBX 2 2 1 0
BITMAP
C0
C0
ENDCHAR

STARTCHAR slash
ENCODING 47
SWIDTH 296 0
DWIDTH 4 0
BBX 8 16 -2 -4
BITMAP
01
01
02
02
04
04
08
08
10
10
20
20
40
40
80
80
ENDCHAR

STARTCHAR zero
ENCODING 48
SWIDTH 500 0
DWIDTH 8 0
BBX 6 11 1 0
BITMAP
18
24
44
44
84
84
84
88
88
90
60
ENDCHAR

STARTCHAR one
ENCODING 49
SWIDTH 500 0
DWIDTH 8 0
BBX 5 11 1 0
BITMAP
08
38
D0
10
10
10
20
20
20
20
F8
ENDCHAR

STARTCHAR two
ENCODING 50
SWIDTH 500 0
DWIDTH 8 0
BBX 6 11 1 0
BITMAP
38
44
44
04
08
08
10
20
20
40
FC
ENDCHAR

STARTCHAR three
ENCODING 51
SWIDTH 500 0
DWIDTH 8 0
BBX 7 11 1 0
BITMAP
3C
42
42
04
38
08
04
04
84
88
70
ENDCHAR

STARTCHAR four
ENCODING 52
SWIDTH 500 0
DWIDTH 8 0
BBX 6 11 1 0
BITMAP
04
0C
14
24
28
48
88
FC
10
10
7C
ENDCHAR

STARTCHAR five
ENCODING 53
SWIDTH 500 0
DWIDTH 8 0
BBX 7 11 1 0
BITMAP
3E
20
20
40
78
44
04
04
84
88
70
ENDCHAR

STARTCHAR six
ENCODING 54
SWIDTH 500 0
DWIDTH 8 0
BBX 6 11 1 0
BITMAP
0C
30
40
40
B8
C4
84
84
84
88
70
ENDCHAR

STARTCHAR seven
ENCODING 55
SWIDTH 500 0
DWIDTH 8 0
BBX 6 11 2 0
BITMAP
FC
08
08
10
10
20
20
40
40
80
80
ENDCHAR

STARTCHAR eight
ENCODING 56
SWIDTH 500 0
DWIDTH 8 0
BBX 7 11 1 0
BITMAP
1C
22
42
44
78
3C
44
84
84
88
70
ENDCHAR

STARTCHAR nine
ENCODING 57
SWIDTH 500 0
DWIDTH 8 0
BBX 6 11 1 0
BITMAP
38
44
84
84
84
8C
74
08
08
30
C0
ENDCHAR

STARTCHAR colon
ENCODING 58
SWIDTH 250 0
DWIDTH 4 0
BBX 3 7 1 0
BITMAP
60
60
00
00
00
C0
C0
ENDCHAR

STARTCHAR semicolon
ENCODING 59
SWIDTH 250 0
DWIDTH 4 0
BBX 4 9 0 -2
BITMAP
30
30
00
00
00
60
60
40
80
ENDCHAR

STARTCHAR less
ENCODING 60
SWIDTH 606 0
DWIDTH 9 0
BBX 7 7 1 1
BITMAP
02
0C
30
C0
30
0C
02
ENDCHAR

STARTCHAR equal
ENCODING 61
SWIDTH 606 0
DWIDTH 9 0
BBX 7 3 1 3
BITMAP
FE
00
FE
ENDCHAR

STARTCHAR greater
ENCODING 62
SWIDTH 606 0
DWIDTH 9 0
BBX 7 7 2 1
BITMAP
80
60
18
06
18
60
80
ENDCHAR

STARTCHAR question
ENCODING 63
SWIDTH 500 0
DWIDTH 8 0
BBX 5 12 2 0
BITMAP
70
88
08
08
10
20
40
40
40
00
80
80
ENDCHAR

STARTCHAR at
ENCODING 64
SWIDTH 747 0
DWIDTH 11 0
BBX 11 13 0 -2
BITMAP
0780
1840
2020
4520
4B20
8920
9120
9240
96C0
4B20
4040
3180
0E00
ENDCHAR

STARTCHAR A
ENCODING 65
SWIDTH 722 0
DWIDTH 11 0
BBX 10 11 0 0
BITMAP
0080
0180
0280
0280
0480
0880
1F80
1080
2080
4080
E1C0
ENDCHAR

STARTCHAR B
ENCODING 66
SWIDTH 611 0
DWIDTH 9 0
BBX 8 11 0 0
BITMAP
3E
11
11
11
22
3E
21
41
41
42
FC
ENDCHAR

STARTCHAR C
ENCODING 67
SWIDTH 667 0
DWIDTH 10 0
BBX 9 11 1 0
BITMAP
0F80
3080
4080
4000
8000
8000
8000
8000
8000
4100
3E00
ENDCHAR

STARTCHAR D
ENCODING 68
SWIDTH 778 0
DWIDTH 12 0
BBX 11 11 0 0
BITMAP
3F80
1040
1020
1020
2020
2020
2020
4040
4040
4180
FE00
ENDCHAR

STARTCHAR E
ENCODING 69
SWIDTH 611 0
DWIDTH 9 0
BBX 10 11 0 0
BITMAP
3FC0
1080
1080
1000
2000
3C00
2000
4000
4100
4200
FE00
ENDCHAR

STARTCHAR F
ENCODING 70
SWIDTH 556 0
DWIDTH 8 0
BBX 9 11 0 0
BITMAP
3F80
1100
1100
1000
2000
3C00
2000
4000
4000
4000
E000
ENDCHAR

STARTCHAR G
ENCODING 71
SWIDTH 722 0
DWIDTH 11 0
BBX 10 11 1 0
BITMAP
0F80
3080
4080
4000
8000
8000
8000
83C0
8080
4100
3E00
ENDCHAR

STARTCHAR H
ENCODING 72
SWIDTH 778 0
DWIDTH 12 0
BBX 12 11 0 0
BITMAP
3870
1020
1020
1020
2040
3FC0
2040
4080
4080
4080
E1C0
ENDCHAR

STARTCHAR I
ENCODING 73
SWIDTH 333 0
DWIDTH 5 0
BBX 5 11 0 0
BITMAP
38
10
10
10
20
20
20
40
40
40
E0
ENDCHAR

STARTCHAR J
ENCODING 74
SWIDTH 333 0
DWIDTH 5 0
BBX 5 14 0 -3
BITMAP
38
10
10
10
10
20
20
20
20
20
40
40
40
80
ENDCHAR

STARTCHAR K
ENCODING 75
SWIDTH 667 0
DWIDTH 10 0
BBX 10 11 0 0
BITMAP
39C0
1080
1100
1200
2400
3800
2800
4400
4200
4100
E180
ENDCHAR

STARTCHAR L
ENCODING 76
SWIDTH 556 0
DWIDTH 8 0
BBX 9 11 0 0
BITMAP
3800
1000
1000
1000
2000
2000
2000
4000
4080
4100
FF00
ENDCHAR

STARTCHAR M
ENCODING 77
SWIDTH 944 0
DWIDTH 14 0
BBX 14 11 0 0
BITMAP
381C
1818
1828
1828
2850
2C90
2490
4520
4620
4620
E470
ENDCHAR

STARTCHAR N
ENCODING 78
SWIDTH 778 0
DWIDTH 12 0
BBX 12 11 0 0
BITMAP
3070
1820
1820
1420
2440
2240
2240
4180
4180
4080
E080
ENDCHAR

STARTCHAR O
ENCODING 79
SWIDTH 778 0
DWIDTH 12 0
BBX 10 11 1 0
BITMAP
0F00
3080
4040
4040
8040
8040
8040
8080
8080
4300
3C00
ENDCHAR

STARTCHAR P
ENCODING 80
SWIDTH 611 0
DWIDTH 9 0
BBX 9 11 0 0
BITMAP
3F00
1080
1080
1080
2100
2600
2000
4000
4000
4000
E000
ENDCHAR

STARTCHAR Q
ENCODING 81
SWIDTH 778 0
DWIDTH 12 0
BBX 10 14 1 -3
BITMAP
0F00
3080
4040
4040
8040
8040
8040
8080
8080
4300
3C00
3800
4640
0380
ENDCHAR

STARTCHAR R
ENCODING 82
SWIDTH 667 0
DWIDTH 9 0
BBX 9 11 0 0
BITMAP
3E00
1100
1100
1100
2200
2C00
2800
4400
4200
4100
E180
ENDCHAR

STARTCHAR S
ENCODING 83
SWIDTH 556 0
DWIDTH 8 0
BBX 8 11 0 0
BITMAP
1F
21
41
40
20
18
04
02
82
84
F8
ENDCHAR

STARTCHAR T
ENCODING 84
SWIDTH 611 0
DWIDTH 9 0
BBX 11 11 0 0
BITMAP
7FE0
4440
8440
0400
0800
0800
0800
1000
1000
1000
3800
ENDCHAR

STARTCHAR U
ENCODING 85
SWIDTH 778 0
DWIDTH 12 0
BBX 11 11 1 0
BITMAP
60E0
2040
2040
2040
4080
4080
4080
8100
8300
8500
7980
ENDCHAR

STARTCHAR V
ENCODING 86
SWIDTH 722 0
DWIDTH 11 0
BBX 9 11 2 0
BITMAP
E380
4100
4200
4200
4400
4800
4800
5000
6000
6000
4000
ENDCHAR

STARTCHAR W
ENCODING 87
SWIDTH 944 0
DWIDTH 14 0
BBX 13 11 2 0
BITMAP
E238
4210
4620
4620
4A40
4A40
5280
5280
6300
6300
4200
ENDCHAR

STARTCHAR X
ENCODING 88
SWIDTH 722 0
DWIDTH 11 0
BBX 11 11 0 0
BITMAP
38E0
1040
0880
0500
0600
0600
0A00
1100
2100
4080
E1C0
ENDCHAR

STARTCHAR Y
ENCODING 89
SWIDTH 667 0
DWIDTH 10 0
BBX 10 11 1 0
BITMAP
E0C0
3100
1200
1400
1400
1800
1000
3000
2000
2000
7000
ENDCHAR

STARTCHAR Z
ENCODING 90
SWIDTH 667 0
DWIDTH 10 0
BBX 10 11 0 0
BITMAP
3FC0
2080
4100
0200
0400
0C00
0800
1000
2080
4100
FF00
ENDCHAR

STARTCHAR bracketleft
ENCODING 91
SWIDTH 333 0
DWIDTH 5 0
BBX 5 16 1 -4
BITMAP
38
20
20
20
20
40
40
40
40
40
40
80
80
80
80
E0
ENDCHAR

STARTCHAR backslash
ENCODING 92
SWIDTH 606 0
DWIDTH 9 0
BBX 8 16 1 -4
BITMAP
80
80
40
40
20
20
10
10
08
08
04
04
02
02
01
01
ENDCHAR

STARTCHAR bracketright
ENCODING 93
SWIDTH 333 0
DWIDTH 5 0
BBX 5 16 -1 -4
BITMAP
38
08
08
08
08
10
10
10
10
10
10
20
20
20
20
E0
ENDCHAR

STARTCHAR asciicircum
ENCODING 94
SWIDTH 606 0
DWIDTH 9 0
BBX 7 6 1 5
BITMAP
10
38
28
6C
44
C6
ENDCHAR

STARTCHAR underscore
ENCODING 95
SWIDTH 500 0
DWIDTH 8 0
BBX 8 1 0 -2
BITMAP
FF
ENDCHAR

STARTCHAR quoteleft
ENCODING 96
SWIDTH 278 0
DWIDTH 4 0
BBX 3 4 1 8
BITMAP
20
40
C0
C0
ENDCHAR

STARTCHAR a
ENCODING 97
SWIDTH 444 0
DWIDTH 7 0
BBX 7 7 1 0
BITMAP
1A
26
44
84
88
9A
6C
ENDCHAR

STARTCHAR b
ENCODING 98
SWIDTH 463 0
DWIDTH 7 0
BBX 6 12 1 0
BITMAP
20
60
20
20
40
58
64
44
84
88
90
60
ENDCHAR

STARTCHAR c
ENCODING 99
SWIDTH 407 0
DWIDTH 6 0
BBX 5 7 1 0
BITMAP
38
48
80
80
80
90
60
ENDCHAR

STARTCHAR d
ENCODING 100
SWIDTH 500 0
DWIDTH 8 0
BBX 7 11 1 0
BITMAP
02
06
02
02
34
4C
84
84
88
9A
6C
ENDCHAR

STARTCHAR e
ENCODING 101
SWIDTH 389 0
DWIDTH 6 0
BBX 5 7 1 0
BITMAP
38
48
F0
80
80
90
60
ENDCHAR

STARTCHAR f
ENCODING 102
SWIDTH 278 0
DWIDTH 4 0
BBX 8 16 -2 -4
BITMAP
03
04
04
08
08
1E
08
08
08
08
10
10
10
10
20
C0
ENDCHAR

STARTCHAR g
ENCODING 103
SWIDTH 499 0
DWIDTH 7 0
BBX 7 11 1 -4
BITMAP
1A
24
44
48
30
20
30
48
84
84
78
ENDCHAR

STARTCHAR h
ENCODING 104
SWIDTH 500 0
DWIDTH 8 0
BBX 7 12 1 0
BITMAP
20
60
20
20
40
58
64
44
84
88
8A
84
ENDCHAR

STARTCHAR i
ENCODING 105
SWIDTH 278 0
DWIDTH 4 0
BBX 4 11 1 0
BITMAP
10
10
00
00
20
E0
40
40
80
A0
40
ENDCHAR

STARTCHAR j
ENCODING 106
SWIDTH 278 0
DWIDTH 4 0
BBX 5 15 -1 -4
BITMAP
08
08
00
00
08
38
10
10
10
10
20
20
20
20
C0
ENDCHAR

STARTCHAR k
ENCODING 107
SWIDTH 444 0
DWIDTH 7 0
BBX 7 12 1 0
BITMAP
20
60
20
20
40
46
48
70
A0
90
94
88
ENDCHAR

STARTCHAR l
ENCODING 108
SWIDTH 278 0
DWIDTH 4 0
BBX 3 12 1 0
BITMAP
20
60
20
20
40
40
40
40
80
80
A0
40
ENDCHAR

STARTCHAR m
ENCODING 109
SWIDTH 778 0
DWIDTH 12 0
BBX 11 7 1 0
BITMAP
5980
E640
4440
4440
8880
88A0
88C0
ENDCHAR

STARTCHAR n
ENCODING 110
SWIDTH 556 0
DWIDTH 8 0
BBX 7 7 1 0
BITMAP
58
E4
44
44
88
8A
8C
ENDCHAR

STARTCHAR o
ENCODING 111
SWIDTH 444 0
DWIDTH 7 0
BBX 6 7 1 0
BITMAP
38
44
84
84
84
88
70
ENDCHAR

STARTCHAR p
ENCODING 112
SWIDTH 500 0
DWIDTH 8 0
BBX 7 11 1 -4
BITMAP
2C
72
22
22
42
64
58
40
80
80
80
ENDCHAR

STARTCHAR q
ENCODING 113
SWIDTH 463 0
DWIDTH 7 0
BBX 6 11 1 -4
BITMAP
34
4C
84
84
88
98
68
08
10
10
10
ENDCHAR

STARTCHAR r
ENCODING 114
SWIDTH 389 0
DWIDTH 6 0
BBX 5 7 1 0
BITMAP
48
D8
60
40
40
80
80
ENDCHAR

STARTCHAR s
ENCODING 115
SWIDTH 389 0
DWIDTH 6 0
BBX 6 7 0 0
BITMAP
3C
44
40
30
08
88
F0
ENDCHAR

STARTCHAR t
ENCODING 116
SWIDTH 333 0
DWIDTH 5 0
BBX 4 10 1 0
BITMAP
20
20
20
F0
40
40
40
80
A0
40
ENDCHAR

STARTCHAR u
ENCODING 117
SWIDTH 556 0
DWIDTH 8 0
BBX 7 7 1 0
BITMAP
44
C4
44
88
88
9A
64
ENDCHAR

STARTCHAR v
ENCODING 118
SWIDTH 500 0
DWIDTH 8 0
BBX 7 7 1 0
BITMAP
74
92
22
42
44
48
30
ENDCHAR

STARTCHAR w
ENCODING 119
SWIDTH 722 0
DWIDTH 11 0
BBX 10 7 1 0
BITMAP
7280
9240
2440
4440
4880
4900
3600
ENDCHAR

STARTCHAR x
ENCODING 120
SWIDTH 500 0
DWIDTH 8 0
BBX 8 7 0 0
BITMAP
33
54
18
10
18
2A
CC
ENDCHAR

STARTCHAR y
ENCODING 121
SWIDTH 500 0
DWIDTH 8 0
BBX 7 11 1 -4
BITMAP
62
A2
22
44
44
4C
34
08
08
90
E0
ENDCHAR

STARTCHAR z
ENCODING 122
SWIDTH 444 0
DWIDTH 7 0
BBX 7 7 1 0
BITMAP
3A
44
08
10
20
44
B8
ENDCHAR

STARTCHAR braceleft
ENCODING 123
SWIDTH 333 0
DWIDTH 5 0
BBX 6 16 1 -4
BITMAP
0C
10
10
20
20
20
40
80
80
40
40
80
80
80
80
40
ENDCHAR

STARTCHAR bar
ENCODING 124
SWIDTH 606 0
DWIDTH 9 0
BBX 1 16 4 -4
BITMAP
80
80
80
80
80
80
80
80
80
80
80
80
80
80
80
80
ENDCHAR

STARTCHAR braceright
ENCODING 125
SWIDTH 333 0
DWIDTH 5 0
BBX 6 16 -1 -4
BITMAP
08
04
04
04
04
08
08
04
04
08
10
10
10
20
20
C0
ENDCHAR

STARTCHAR asciitilde
ENCODING 126
SWIDTH 606 0
DWIDTH 9 0
BBX 7 2 1 4
BITMAP
72
9C
ENDCHAR

STARTCHAR space
ENCODING 160
SWIDTH 250 0
DWIDTH 4 0
BBX 0 0 0 0
BITMAP
ENDCHAR

STARTCHAR exclamdown
ENCODING 161
SWIDTH 333 0
DWIDTH 5 0
BBX 2 12 2 -4
BITMAP
40
40
00
40
40
40
40
80
80
80
80
80
ENDCHAR

STARTCHAR cent
ENCODING 162
SWIDTH 500 0
DWIDTH 8 0
BBX 6 10 1 0
BITMAP
10
3C
54
90
A0
A0
A8
70
20
20
ENDCHAR

STARTCHAR sterling
ENCODING 163
SWIDTH 500 0
DWIDTH 8 0
BBX 8 11 0 0
BITMAP
0F
11
10
10
10
FC
20
20
20
71
DE
ENDCHAR

STARTCHAR currency
ENCODING 164
SWIDTH 606 0
DWIDTH 9 0
BBX 8 8 1 1
BITMAP
BD
42
81
81
81
81
42
BD
ENDCHAR

STARTCHAR yen
ENCODING 165
SWIDTH 667 0
DWIDTH 10 0
BBX 10 11 1 0
BITMAP
E0C0
3100
1200
1400
1400
7F00
1000
FC00
2000
2000
7000
ENDCHAR

STARTCHAR brokenbar
ENCODING 166
SWIDTH 606 0
DWIDTH 9 0
BBX 1 16 4 -4
BITMAP
80
80
80
80
80
80
80
00
00
80
80
80
80
80
80
80
ENDCHAR

STARTCHAR section
ENCODING 167
SWIDTH 500 0
DWIDTH 8 0
BBX 7 16 1 -4
BITMAP
0E
12
22
20
30
48
44
44
42
22
22
1C
08
88
90
E0
ENDCHAR

STARTCHAR dieresis
ENCODING 168
SWIDTH 333 0
DWIDTH 5 0
BBX 5 2 1 8
BITMAP
D8
D8
ENDCHAR

STARTCHAR copyright
ENCODING 169
SWIDTH 747 0
DWIDTH 11 0
BBX 11 11 0 0
BITMAP
1F00
2080
4F40
9120
A020
A020
A020
9120
4E40
2080
1F00
ENDCHAR

STARTCHAR ordfeminine
ENCODING 170
SWIDTH 333 0
DWIDTH 5 0
BBX 5 5 1 7
BITMAP
38
50
90
A0
50
ENDCHAR

STARTCHAR guillemotleft
ENCODING 171
SWIDTH 500 0
DWIDTH 8 0
BBX 6 4 1 1
BITMAP
24
48
D8
48
ENDCHAR

STARTCHAR logicalnot
ENCODING 172
SWIDTH 606 0
DWIDTH 9 0
BBX 7 3 1 4
BITMAP
FE
02
02
ENDCHAR

STARTCHAR hyphen
ENCODING 173
SWIDTH 333 0
DWIDTH 5 0
BBX 5 1 0 3
BITMAP
F8
ENDCHAR

STARTCHAR registered
ENCODING 174
SWIDTH 747 0
DWIDTH 11 0
BBX 12 11 0 0
BITMAP
1F80
2040
5E20
8910
8910
8E10
8A10
8910
5DA0
2040
1F80
ENDCHAR

STARTCHAR macron
ENCODING 175
SWIDTH 333 0
DWIDTH 5 0
BBX 4 1 2 8
BITMAP
F0
ENDCHAR

STARTCHAR degree
ENCODING 176
SWIDTH 402 0
DWIDTH 6 0
BBX 5 5 1 6
BITMAP
70
88
88
88
70
ENDCHAR

STARTCHAR plusminus
ENCODING 177
SWIDTH 606 0
DWIDTH 9 0
BBX 7 9 1 0
BITMAP
10
10
10
FE
10
10
10
00
FE
ENDCHAR

STARTCHAR twosuperior
ENCODING 178
SWIDTH 310 0
DWIDTH 5 0
BBX 4 6 1 5
BITMAP
20
50
10
20
40
E0
ENDCHAR

STARTCHAR threesuperior
ENCODING 179
SWIDTH 310 0
DWIDTH 5 0
BBX 5 6 1 5
BITMAP
78
10
20
10
90
60
ENDCHAR

STARTCHAR acute
ENCODING 180
SWIDTH 333 0
DWIDTH 5 0
BBX 3 2 2 8
BITMAP
60
80
ENDCHAR

STARTCHAR mu
ENCODING 181
SWIDTH 598 0
DWIDTH 9 0
BBX 8 9 1 -2
BITMAP
22
22
22
44
44
4D
76
80
80
ENDCHAR

STARTCHAR paragraph
ENCODING 182
SWIDTH 500 0
DWIDTH 8 0
BBX 7 15 1 -4
BITMAP
7E
F4
F4
F4
F4
74
14
14
14
14
14
14
14
14
14
ENDCHAR

STARTCHAR periodcentered
ENCODING 183
SWIDTH 250 0
DWIDTH 4 0
BBX 2 2 1 4
BITMAP
C0
C0
ENDCHAR

STARTCHAR cedilla
ENCODING 184
SWIDTH 333 0
DWIDTH 5 0
BBX 3 3 1 -3
BITMAP
40
20
C0
ENDCHAR

STARTCHAR onesuperior
ENCODING 185
SWIDTH 310 0
DWIDTH 5 0
BBX 3 6 1 5
BITMAP
20
60
20
40
40
E0
ENDCHAR

STARTCHAR ordmasculine
ENCODING 186
SWIDTH 333 0
DWIDTH 5 0
BBX 4 5 1 7
BITMAP
20
50
90
A0
40
ENDCHAR

STARTCHAR guillemotright
ENCODING 187
SWIDTH 500 0
DWIDTH 8 0
BBX 6 4 1 1
BITMAP
48
6C
48
90
ENDCHAR

STARTCHAR onequarter
ENCODING 188
SWIDTH 788 0
DWIDTH 12 0
BBX 11 11 1 0
BITMAP
2080
6100
2100
4200
4400
E440
08C0
1140
13E0
2080
41C0
ENDCHAR

STARTCHAR onehalf
ENCODING 189
SWIDTH 788 0
DWIDTH 12 0
BBX 10 11 1 0
BITMAP
2080
6100
2100
4200
4400
E480
0940
1040
1080
2100
4380
ENDCHAR

STARTCHAR threequarters
ENCODING 190
SWIDTH 788 0
DWIDTH 12 0
BBX 11 11 1 0
BITMAP
7880
1100
2100
1200
9400
6440
08C0
1140
13E0
2080
41C0
ENDCHAR

STARTCHAR questiondown
ENCODING 191
SWIDTH 500 0
DWIDTH 8 0
BBX 5 12 2 -4
BITMAP
08
08
00
10
10
10
20
40
80
80
88
70
ENDCHAR

STARTCHAR Agrave
ENCODING 192
SWIDTH 722 0
DWIDTH 11 0
BBX 10 14 0 0
BITMAP
0300
0080
0000
0080
0180
0280
0280
0480
0880
1F80
1080
2080
4080
E1C0
ENDCHAR

STARTCHAR Aacute
ENCODING 193
SWIDTH 722 0
DWIDTH 11 0
BBX 11 14 0 0
BITMAP
0060
0080
0000
0080
0180
0280
0280
0480
0880
1F80
1080
2080
4080
E1C0
ENDCHAR

STARTCHAR Acircumflex
ENCODING 194
SWIDTH 722 0
DWIDTH 11 0
BBX 11 14 0 0
BITMAP
00C0
0120
0000
0080
0180
0280
0280
0480
0880
1F80
1080
2080
4080
E1C0
ENDCHAR

STARTCHAR Atilde
ENCODING 195
SWIDTH 722 0
DWIDTH 11 0
BBX 12 14 0 0
BITMAP
00D0
0160
0000
0080
0180
0280
0280
0480
0880
1F80
1080
2080
4080
E1C0
ENDCHAR

STARTCHAR Adieresis
ENCODING 196
SWIDTH 722 0
DWIDTH 11 0
BBX 11 14 0 0
BITMAP
0360
0360
0000
0080
0180
0280
0280
0480
0880
1F80
1080
2080
4080
E1C0
ENDCHAR

STARTCHAR Aring
ENCODING 197
SWIDTH 722 0
DWIDTH 11 0
BBX 10 15 0 0
BITMAP
0080
0140
0080
0000
0080
0180
0280
0280
0480
0880
1F80
1080
2080
4080
E1C0
ENDCHAR

STARTCHAR AE
ENCODING 198
SWIDTH 941 0
DWIDTH 14 0
BBX 14 11 0 0
BITMAP
03FC
0188
0288
0480
0500
09F0
1F00
1100
2208
4210
E7F0
ENDCHAR

STARTCHAR Ccedilla
ENCODING 199
SWIDTH 667 0
DWIDTH 10 0
BBX 9 14 1 -3
BITMAP
0F80
3080
4080
4000
8000
8000
8000
8000
8000
4100
3E00
0800
0400
1800
ENDCHAR

STARTCHAR Egrave
ENCODING 200
SWIDTH 611 0
DWIDTH 9 0
BBX 10 14 0 0
BITMAP
0C00
0200
0000
3FC0
1080
1080
1000
2000
3C00
2000
4000
4100
4200
FE00
ENDCHAR

STARTCHAR Eacute
ENCODING 201
SWIDTH 611 0
DWIDTH 9 0
BBX 10 14 0 0
BITMAP
0300
0400
0000
3FC0
1080
1080
1000
2000
3C00
2000
4000
4100
4200
FE00
ENDCHAR

STARTCHAR Ecircumflex
ENCODING 202
SWIDTH 611 0
DWIDTH 9 0
BBX 10 14 0 0
BITMAP
0300
0480
0000
3FC0
1080
1080
1000
2000
3C00
2000
4000
4100
4200
FE00
ENDCHAR

STARTCHAR Edieresis
ENCODING 203
SWIDTH 611 0
DWIDTH 9 0
BBX 10 14 0 0
BITMAP
0D80
0D80
0000
3FC0
1080
1080
1000
2000
3C00
2000
4000
4100
4200
FE00
ENDCHAR

STARTCHAR Igrave
ENCODING 204
SWIDTH 333 0
DWIDTH 5 0
BBX 5 14 0 0
BITMAP
30
08
00
38
10
10
10
20
20
20
40
40
40
E0
ENDCHAR

STARTCHAR Iacute
ENCODING 205
SWIDTH 333 0
DWIDTH 5 0
BBX 6 14 0 0
BITMAP
0C
10
00
38
10
10
10
20
20
20
40
40
40
E0
ENDCHAR

STARTCHAR Icircumflex
ENCODING 206
SWIDTH 333 0
DWIDTH 5 0
BBX 6 14 0 0
BITMAP
18
24
00
38
10
10
10
20
20
20
40
40
40
E0
ENDCHAR

STARTCHAR Idieresis
ENCODING 207
SWIDTH 333 0
DWIDTH 5 0
BBX 7 14 0 0
BITMAP
36
36
00
38
10
10
10
20
20
20
40
40
40
E0
ENDCHAR

STARTCHAR Gbreve
ENCODING 208
SWIDTH 722 0
DWIDTH 11 0
BBX 10 14 1 0
BITMAP
0880
0700
0000
0F80
3080
4080
4000
8000
8000
8000
83C0
8080
4100
3E00
ENDCHAR

STARTCHAR Ntilde
ENCODING 209
SWIDTH 778 0
DWIDTH 12 0
BBX 12 14 0 0
BITMAP
0340
0580
0000
3070
1820
1820
1420
2440
2240
2240
4180
4180
4080
E080
ENDCHAR

STARTCHAR Ograve
ENCODING 210
SWIDTH 778 0
DWIDTH 12 0
BBX 10 14 1 0
BITMAP
0C00
0200
0000
0F00
3080
4040
4040
8040
8040
8040
8080
8080
4300
3C00
ENDCHAR

STARTCHAR Oacute
ENCODING 211
SWIDTH 778 0
DWIDTH 12 0
BBX 10 14 1 0
BITMAP
0300
0400
0000
0F00
3080
4040
4040
8040
8040
8040
8080
8080
4300
3C00
ENDCHAR

STARTCHAR Ocircumflex
ENCODING 212
SWIDTH 778 0
DWIDTH 12 0
BBX 10 14 1 0
BITMAP
0600
0900
0000
0F00
3080
4040
4040
8040
8040
8040
8080
8080
4300
3C00
ENDCHAR

STARTCHAR Otilde
ENCODING 213
SWIDTH 778 0
DWIDTH 12 0
BBX 10 14 1 0
BITMAP
0680
0B00
0000
0F00
3080
4040
4040
8040
8040
8040
8080
8080
4300
3C00
ENDCHAR

STARTCHAR Odieresis
ENCODING 214
SWIDTH 778 0
DWIDTH 12 0
BBX 10 14 1 0
BITMAP
0D80
0D80
0000
0F00
3080
4040
4040
8040
8040
8040
8080
8080
4300
3C00
ENDCHAR

STARTCHAR multiply
ENCODING 215
SWIDTH 606 0
DWIDTH 9 0
BBX 5 6 2 2
BITMAP
88
50
20
20
50
88
ENDCHAR

STARTCHAR Oslash
ENCODING 216
SWIDTH 778 0
DWIDTH 12 0
BBX 10 11 1 0
BITMAP
0F40
3080
4140
4240
8440
8840
8840
9080
A080
4300
BC00
ENDCHAR

STARTCHAR Ugrave
ENCODING 217
SWIDTH 778 0
DWIDTH 12 0
BBX 11 14 1 0
BITMAP
0C00
0200
0000
60E0
2040
2040
2040
4080
4080
4080
8100
8300
8500
7980
ENDCHAR

STARTCHAR Uacute
ENCODING 218
SWIDTH 778 0
DWIDTH 12 0
BBX 11 14 1 0
BITMAP
0300
0400
0000
60E0
2040
2040
2040
4080
4080
4080
8100
8300
8500
7980
ENDCHAR

STARTCHAR Ucircumflex
ENCODING 219
SWIDTH 778 0
DWIDTH 12 0
BBX 11 14 1 0
BITMAP
0600
0900
0000
60E0
2040
2040
2040
4080
4080
4080
8100
8300
8500
7980
ENDCHAR

STARTCHAR Udieresis
ENCODING 220
SWIDTH 778 0
DWIDTH 12 0
BBX 11 14 1 0
BITMAP
0D80
0D80
0000
60E0
2040
2040
2040
4080
4080
4080
8100
8300
8500
7980
ENDCHAR

STARTCHAR Idotaccent
ENCODING 221
SWIDTH 333 0
DWIDTH 5 0
BBX 5 14 0 0
BITMAP
18
18
00
38
10
10
10
20
20
20
40
40
40
E0
ENDCHAR

STARTCHAR Scedilla
ENCODING 222
SWIDTH 556 0
DWIDTH 8 0
BBX 8 14 0 -3
BITMAP
1F
21
41
40
20
18
04
02
82
84
F8
20
10
60
ENDCHAR

STARTCHAR germandbls
ENCODING 223
SWIDTH 500 0
DWIDTH 8 0
BBX 10 16 -3 -4
BITMAP
0180
0240
0440
0440
0880
1880
0900
0900
0880
0880
1280
1300
1000
1000
2000
C000
ENDCHAR

STARTCHAR agrave
ENCODING 224
SWIDTH 444 0
DWIDTH 7 0
BBX 7 10 1 0
BITMAP
30
08
00
1A
26
44
84
88
9A
6C
ENDCHAR

STARTCHAR aacute
ENCODING 225
SWIDTH 444 0
DWIDTH 7 0
BBX 7 10 1 0
BITMAP
06
08
00
1A
26
44
84
88
9A
6C
ENDCHAR

STARTCHAR acircumflex
ENCODING 226
SWIDTH 444 0
DWIDTH 7 0
BBX 7 10 1 0
BITMAP
0C
12
00
1A
26
44
84
88
9A
6C
ENDCHAR

STARTCHAR atilde
ENCODING 227
SWIDTH 444 0
DWIDTH 7 0
BBX 8 10 1 0
BITMAP
0D
16
00
1A
26
44
84
88
9A
6C
ENDCHAR

STARTCHAR adieresis
ENCODING 228
SWIDTH 444 0
DWIDTH 7 0
BBX 8 10 1 0
BITMAP
1B
1B
00
1A
26
44
84
88
9A
6C
ENDCHAR

STARTCHAR aring
ENCODING 229
SWIDTH 444 0
DWIDTH 7 0
BBX 7 11 1 0
BITMAP
04
0A
04
00
1A
26
44
84
88
9A
6C
ENDCHAR

STARTCHAR ae
ENCODING 230
SWIDTH 638 0
DWIDTH 10 0
BBX 9 7 0 0
BITMAP
3380
4C80
0900
7E00
8800
9900
E600
ENDCHAR

STARTCHAR ccedilla
ENCODING 231
SWIDTH 407 0
DWIDTH 6 0
BBX 5 10 1 -3
BITMAP
38
48
80
80
80
90
60
40
20
C0
ENDCHAR

STARTCHAR egrave
ENCODING 232
SWIDTH 389 0
DWIDTH 6 0
BBX 5 10 1 0
BITMAP
60
10
00
38
48
F0
80
80
90
60
ENDCHAR

STARTCHAR eacute
ENCODING 233
SWIDTH 389 0
DWIDTH 6 0
BBX 6 10 1 0
BITMAP
0C
10
00
38
48
F0
80
80
90
60
ENDCHAR

STARTCHAR ecircumflex
ENCODING 234
SWIDTH 389 0
DWIDTH 6 0
BBX 6 10 1 0
BITMAP
18
24
00
38
48
F0
80
80
90
60
ENDCHAR

STARTCHAR edieresis
ENCODING 235
SWIDTH 389 0
DWIDTH 6 0
BBX 6 10 1 0
BITMAP
6C
6C
00
38
48
F0
80
80
90
60
ENDCHAR

STARTCHAR igrave
ENCODING 236
SWIDTH 278 0
DWIDTH 4 0
BBX 3 10 1 0
BITMAP
C0
20
00
20
E0
40
40
80
A0
40
ENDCHAR

STARTCHAR iacute
ENCODING 237
SWIDTH 278 0
DWIDTH 4 0
BBX 4 10 1 0
BITMAP
30
40
00
20
E0
40
40
80
A0
40
ENDCHAR

STARTCHAR icircumflex
ENCODING 238
SWIDTH 278 0
DWIDTH 4 0
BBX 5 10 1 0
BITMAP
30
48
00
20
E0
40
40
80
A0
40
ENDCHAR

STARTCHAR idieresis
ENCODING 239
SWIDTH 278 0
DWIDTH 4 0
BBX 5 10 1 0
BITMAP
D8
D8
00
20
E0
40
40
80
A0
40
ENDCHAR

STARTCHAR gbreve
ENCODING 240
SWIDTH 499 0
DWIDTH 7 0
BBX 7 14 1 -4
BITMAP
22
1C
00
1A
24
44
48
30
20
30
48
84
84
78
ENDCHAR

STARTCHAR ntilde
ENCODING 241
SWIDTH 556 0
DWIDTH 8 0
BBX 7 10 1 0
BITMAP
1A
2C
00
58
E4
44
44
88
8A
8C
ENDCHAR

STARTCHAR ograve
ENCODING 242
SWIDTH 444 0
DWIDTH 7 0
BBX 6 10 1 0
BITMAP
60
10
00
38
44
84
84
84
88
70
ENDCHAR

STARTCHAR oacute
ENCODING 243
SWIDTH 444 0
DWIDTH 7 0
BBX 6 10 1 0
BITMAP
0C
10
00
38
44
84
84
84
88
70
ENDCHAR

STARTCHAR ocircumflex
ENCODING 244
SWIDTH 444 0
DWIDTH 7 0
BBX 6 10 1 0
BITMAP
18
24
00
38
44
84
84
84
88
70
ENDCHAR

STARTCHAR otilde
ENCODING 245
SWIDTH 444 0
DWIDTH 7 0
BBX 7 10 1 0
BITMAP
1A
2C
00
38
44
84
84
84
88
70
ENDCHAR

STARTCHAR odieresis
ENCODING 246
SWIDTH 444 0
DWIDTH 7 0
BBX 6 10 1 0
BITMAP
6C
6C
00
38
44
84
84
84
88
70
ENDCHAR

STARTCHAR divide
ENCODING 247
SWIDTH 606 0
DWIDTH 9 0
BBX 8 7 1 1
BITMAP
18
18
00
FF
00
18
18
ENDCHAR

STARTCHAR oslash
ENCODING 248
SWIDTH 444 0
DWIDTH 7 0
BBX 6 7 1 0
BITMAP
3C
48
94
94
A4
48
F0
ENDCHAR

STARTCHAR ugrave
ENCODING 249
SWIDTH 556 0
DWIDTH 8 0
BBX 7 10 1 0
BITMAP
60
10
00
44
C4
44
88
88
9A
64
ENDCHAR

STARTCHAR uacute
ENCODING 250
SWIDTH 556 0
DWIDTH 8 0
BBX 7 10 1 0
BITMAP
0C
10
00
44
C4
44
88
88
9A
64
ENDCHAR

STARTCHAR ucircumflex
ENCODING 251
SWIDTH 556 0
DWIDTH 8 0
BBX 7 10 1 0
BITMAP
18
24
00
44
C4
44
88
88
9A
64
ENDCHAR

STARTCHAR udieresis
ENCODING 252
SWIDTH 556 0
DWIDTH 8 0
BBX 7 10 1 0
BITMAP
6C
6C
00
44
C4
44
88
88
9A
64
ENDCHAR

STARTCHAR dotlessi
ENCODING 253
SWIDTH 278 0
DWIDTH 4 0
BBX 3 7 1 0
BITMAP
20
E0
40
40
80
A0
40
ENDCHAR

STARTCHAR scedilla
ENCODING 254
SWIDTH 389 0
DWIDTH 6 0
BBX 6 10 0 -3
BITMAP
3C
44
40
30
08
88
F0
20
10
60
ENDCHAR

STARTCHAR ydieresis
ENCODING 255
SWIDTH 500 0
DWIDTH 8 0
BBX 7 14 1 -4
BITMAP
36
36
00
62
A2
22
44
44
4C
34
08
08
90
E0
ENDCHAR
ENDFONT
